<svg width="43" height="43" viewBox="0 0 43 43" fill="none" xmlns="http://www.w3.org/2000/svg">
<path d="M35.5875 25.2101C35.5913 25.8147 35.4076 26.4057 35.0618 26.9016C34.716 27.3976 34.2251 27.7741 33.6566 27.9795L24.0852 31.5015L20.5642 41.0683C20.3557 41.635 19.9785 42.124 19.4834 42.4694C18.9883 42.8148 18.3993 43 17.7957 43C17.1921 43 16.603 42.8148 16.1079 42.4694C15.6128 42.124 15.2356 41.635 15.0271 41.0683L11.4969 31.5126L1.93108 27.9906C1.36463 27.782 0.875771 27.4047 0.530459 26.9095C0.185147 26.4142 0 25.825 0 25.2212C0 24.6174 0.185147 24.0282 0.530459 23.5329C0.875771 23.0377 1.36463 22.6604 1.93108 22.4518L11.5025 18.9298L15.0234 9.36295C15.2319 8.79633 15.6091 8.30733 16.1042 7.96191C16.5993 7.6165 17.1884 7.43129 17.792 7.43129C18.3956 7.43129 18.9846 7.6165 19.4797 7.96191C19.9748 8.30733 20.352 8.79633 20.5605 9.36295L24.0815 18.9372L33.6454 22.4592C34.2131 22.6617 34.7043 23.0346 35.0519 23.527C35.3996 24.0195 35.5866 24.6073 35.5875 25.2101ZM25.21 7.41473H28.175V10.3806C28.175 10.7739 28.3312 11.1511 28.6092 11.4292C28.8872 11.7073 29.2643 11.8636 29.6575 11.8636C30.0507 11.8636 30.4278 11.7073 30.7058 11.4292C30.9838 11.1511 31.14 10.7739 31.14 10.3806V7.41473H34.105C34.4982 7.41473 34.8753 7.25849 35.1533 6.98039C35.4313 6.70228 35.5875 6.32509 35.5875 5.93178C35.5875 5.53848 35.4313 5.16129 35.1533 4.88318C34.8753 4.60508 34.4982 4.44884 34.105 4.44884H31.14V1.48295C31.14 1.08964 30.9838 0.712451 30.7058 0.434345C30.4278 0.156238 30.0507 0 29.6575 0C29.2643 0 28.8872 0.156238 28.6092 0.434345C28.3312 0.712451 28.175 1.08964 28.175 1.48295V4.44884H25.21C24.8168 4.44884 24.4398 4.60508 24.1617 4.88318C23.8837 5.16129 23.7275 5.53848 23.7275 5.93178C23.7275 6.32509 23.8837 6.70228 24.1617 6.98039C24.4398 7.25849 24.8168 7.41473 25.21 7.41473ZM41.5175 13.3465H40.035V11.8636C40.035 11.4703 39.8788 11.0931 39.6008 10.815C39.3228 10.5369 38.9457 10.3806 38.5525 10.3806C38.1593 10.3806 37.7822 10.5369 37.5042 10.815C37.2262 11.0931 37.07 11.4703 37.07 11.8636V13.3465H35.5875C35.1943 13.3465 34.8172 13.5028 34.5392 13.7809C34.2612 14.059 34.105 14.4362 34.105 14.8295C34.105 15.2228 34.2612 15.6 34.5392 15.8781C34.8172 16.1562 35.1943 16.3124 35.5875 16.3124H37.07V17.7954C37.07 18.1887 37.2262 18.5658 37.5042 18.844C37.7822 19.1221 38.1593 19.2783 38.5525 19.2783C38.9457 19.2783 39.3228 19.1221 39.6008 18.844C39.8788 18.5658 40.035 18.1887 40.035 17.7954V16.3124H41.5175C41.9107 16.3124 42.2878 16.1562 42.5658 15.8781C42.8438 15.6 43 15.2228 43 14.8295C43 14.4362 42.8438 14.059 42.5658 13.7809C42.2878 13.5028 41.9107 13.3465 41.5175 13.3465Z" fill="#D99BFF"/>
</svg>
